<svg width="356" height="126" viewBox="0 0 356 126" fill="none" xmlns="http://www.w3.org/2000/svg">
<path d="M31.512 101C28.1147 101 25.0987 100.341 22.464 99.024C19.8987 97.6373 17.7493 95.8 16.016 93.512C14.352 91.1547 13.0693 88.4507 12.168 85.4C11.336 82.3493 10.9547 79.056 11.024 75.52C11.024 72.1227 11.4747 68.8987 12.376 65.848C13.2773 62.728 14.56 59.9893 16.224 57.632C17.9573 55.2053 20.072 53.3333 22.568 52.016C25.1333 50.6293 28.1147 49.936 31.512 49.936C34.5627 49.936 37.5093 50.6293 40.352 52.016C43.264 53.4027 45.8293 55.3093 48.048 57.736C50.2667 60.0933 52 62.832 53.248 65.952C54.5653 69.072 55.224 72.3653 55.224 75.832C55.224 79.2987 54.5653 82.592 53.248 85.712C52 88.7627 50.2667 91.432 48.048 93.72C45.8293 96.008 43.2987 97.8107 40.456 99.128C37.6133 100.376 34.632 101 31.512 101ZM11.44 123.464C8.944 123.464 7.14133 123.083 6.032 122.32C4.992 121.627 4.33333 120.691 4.056 119.512C3.848 118.403 3.744 117.189 3.744 115.872V57.736C3.744 56.3493 3.848 55.1013 4.056 53.992C4.264 52.8133 4.888 51.8427 5.928 51.08C7.03733 50.3173 8.84 49.936 11.336 49.936C13.4853 49.936 15.184 50.248 16.432 50.872C17.7493 51.496 18.6853 52.4667 19.24 53.784V115.768C19.3093 117.085 19.2053 118.333 18.928 119.512C18.6507 120.691 17.9573 121.627 16.848 122.32C15.808 123.083 14.0053 123.464 11.44 123.464ZM29.328 86.336C31.2693 86.336 33.0027 85.8853 34.528 84.984C36.0533 84.0133 37.2667 82.7307 38.168 81.136C39.1387 79.5413 39.624 77.7733 39.624 75.832C39.624 73.8213 39.1733 72.0533 38.272 70.528C37.3707 68.9333 36.1573 67.6853 34.632 66.784C33.1067 65.8827 31.3733 65.432 29.432 65.432C27.56 65.432 25.8267 65.9173 24.232 66.888C22.7067 67.7893 21.4933 69.0373 20.592 70.632C19.76 72.1573 19.344 73.8907 19.344 75.832C19.344 77.7733 19.7947 79.5413 20.696 81.136C21.5973 82.7307 22.8107 84.0133 24.336 84.984C25.8613 85.8853 27.5253 86.336 29.328 86.336ZM81.6148 101.936C78.7721 101.936 76.2415 101.763 74.0228 101.416C71.8735 101.139 70.0015 100.584 68.4068 99.752C66.8815 98.92 65.6335 97.776 64.6628 96.32C63.6921 94.864 62.9641 92.992 62.4788 90.704C62.0628 88.3467 61.8548 85.4693 61.8548 82.072V34.024C61.8548 32.6373 61.9588 31.3547 62.1668 30.176C62.4441 28.9973 63.1375 28.0267 64.2468 27.264C65.3561 26.5013 67.1588 26.12 69.6548 26.12C72.1508 26.12 73.9188 26.5013 74.9588 27.264C76.0681 28.0267 76.7615 28.9973 77.0388 30.176C77.3161 31.3547 77.4548 32.6373 77.4548 34.024V81.344C77.4548 82.4533 77.4895 83.3893 77.5588 84.152C77.6975 84.8453 77.9055 85.4 78.1828 85.816C78.5295 86.232 78.9801 86.5093 79.5348 86.648C80.0895 86.7867 80.8175 86.856 81.7188 86.856C82.5508 86.856 83.3828 86.96 84.2148 87.168C85.1161 87.376 85.8788 88 86.5028 89.04C87.1268 90.08 87.4388 91.8133 87.4388 94.24C87.4388 96.736 87.1268 98.5387 86.5028 99.648C85.8788 100.757 85.1161 101.416 84.2148 101.624C83.3828 101.832 82.5161 101.936 81.6148 101.936ZM135.36 101.832C132.795 101.832 130.888 101.381 129.64 100.48C128.461 99.5787 127.872 98.4693 127.872 97.152L128.912 95.384C128.496 96.0773 127.699 96.944 126.52 97.984C125.341 98.9547 123.816 99.856 121.944 100.688C120.072 101.451 117.749 101.832 114.976 101.832C111.787 101.832 108.736 101.139 105.824 99.752C102.981 98.3653 100.451 96.4587 98.2321 94.032C96.0134 91.536 94.2454 88.728 92.9281 85.608C91.6801 82.488 91.0561 79.1947 91.0561 75.728C91.0561 72.3307 91.6801 69.1067 92.9281 66.056C94.2454 62.936 96.0134 60.1973 98.2321 57.84C100.52 55.4133 103.085 53.5067 105.928 52.12C108.771 50.7333 111.787 50.04 114.976 50.04C117.541 50.04 119.725 50.4213 121.528 51.184C123.331 51.8773 124.821 52.7093 126 53.68C127.248 54.6507 128.184 55.5867 128.808 56.488L127.976 55.032C127.907 53.368 128.461 52.12 129.64 51.288C130.888 50.3867 132.829 49.936 135.464 49.936C137.96 49.936 139.728 50.3173 140.768 51.08C141.877 51.8427 142.536 52.848 142.744 54.096C143.021 55.344 143.16 56.6613 143.16 58.048V93.928C143.16 95.2453 143.021 96.528 142.744 97.776C142.536 99.024 141.877 100.029 140.768 100.792C139.728 101.485 137.925 101.832 135.36 101.832ZM117.264 86.336C119.067 86.336 120.696 85.8853 122.152 84.984C123.677 84.0133 124.856 82.7307 125.688 81.136C126.589 79.5413 127.04 77.7733 127.04 75.832C127.04 73.8213 126.589 72.0533 125.688 70.528C124.787 68.9333 123.573 67.6853 122.048 66.784C120.523 65.8133 118.859 65.328 117.056 65.328C115.045 65.328 113.243 65.8133 111.648 66.784C110.123 67.7547 108.875 69.0373 107.904 70.632C107.003 72.2267 106.552 74.0293 106.552 76.04C106.552 77.912 107.003 79.6453 107.904 81.24C108.875 82.7653 110.157 84.0133 111.752 84.984C113.416 85.8853 115.253 86.336 117.264 86.336ZM164.266 122.944C161.424 121.696 159.76 120.309 159.274 118.784C158.858 117.259 159.24 115.213 160.418 112.648L186.522 54.304C187.701 51.6 188.984 50.0053 190.37 49.52C191.826 48.9653 193.976 49.2427 196.818 50.352C199.592 51.6693 201.186 53.056 201.602 54.512C202.088 55.968 201.776 57.9093 200.666 60.336L174.458 119.096C173.28 121.8 171.997 123.429 170.61 123.984C169.224 124.539 167.109 124.192 164.266 122.944ZM173.314 98.712L148.874 61.48C147.349 59.192 146.725 57.2853 147.002 55.76C147.349 54.2347 148.736 52.6747 151.162 51.08C153.866 49.416 155.946 48.792 157.402 49.208C158.928 49.5547 160.453 50.9067 161.978 53.264L179.97 80.824L173.314 98.712ZM221.424 102.04C218.997 102.04 217.229 101.659 216.12 100.896C215.011 100.133 214.317 99.1627 214.04 97.984C213.832 96.736 213.728 95.4187 213.728 94.032V45.36C213.728 43.0027 214.109 40.68 214.872 38.392C215.635 36.104 216.848 34.0587 218.512 32.256C220.176 30.384 222.291 28.8933 224.856 27.784C227.421 26.6747 230.541 26.12 234.216 26.12C235.533 26.12 236.781 26.2587 237.96 26.536C239.208 26.744 240.179 27.4027 240.872 28.512C241.635 29.552 242.016 31.3547 242.016 33.92C242.016 36.4853 241.635 38.3227 240.872 39.432C240.109 40.472 239.104 41.1307 237.856 41.408C236.677 41.616 235.429 41.72 234.112 41.72C233.211 41.72 232.448 41.7893 231.824 41.928C231.269 41.9973 230.819 42.136 230.472 42.344C230.125 42.552 229.848 42.8987 229.64 43.384C229.501 43.8693 229.432 44.4587 229.432 45.152V94.344C229.432 95.6613 229.293 96.9093 229.016 98.088C228.739 99.2667 228.045 100.237 226.936 101C225.827 101.693 223.989 102.04 221.424 102.04ZM210.504 50.768H221.944L236.296 50.352C237.613 50.352 238.861 50.4907 240.04 50.768C241.219 50.976 242.189 51.6347 242.952 52.744C243.715 53.8533 244.096 55.6907 244.096 58.256C244.096 60.6133 243.715 62.3467 242.952 63.456C242.259 64.5653 241.323 65.2933 240.144 65.64C238.965 65.9173 237.683 66.056 236.296 66.056L222.672 65.744H210.088C208.077 65.6747 206.656 65.0853 205.824 63.976C205.061 62.7973 204.68 60.856 204.68 58.152C204.68 55.656 205.165 53.8187 206.136 52.64C207.107 51.392 208.563 50.768 210.504 50.768ZM272.101 101.832C268.911 101.832 265.895 101.208 263.053 99.96C260.279 98.712 257.853 96.9787 255.773 94.76C253.693 92.472 252.063 89.8027 250.885 86.752C249.775 83.632 249.221 80.2347 249.221 76.56V57.736C249.221 56.3493 249.359 55.0667 249.637 53.888C249.914 52.7093 250.573 51.7387 251.613 50.976C252.722 50.2133 254.559 49.832 257.125 49.832C259.69 49.832 261.493 50.2133 262.533 50.976C263.642 51.7387 264.301 52.744 264.509 53.992C264.786 55.1707 264.925 56.4533 264.925 57.84V76.56C264.925 78.5707 265.271 80.3387 265.965 81.864C266.727 83.32 267.802 84.4293 269.189 85.192C270.645 85.9547 272.343 86.336 274.285 86.336C276.295 86.336 277.994 85.9547 279.381 85.192C280.837 84.36 281.946 83.216 282.709 81.76C283.541 80.304 283.957 78.5707 283.957 76.56V57.632C283.957 56.2453 284.095 54.9627 284.373 53.784C284.65 52.6053 285.309 51.6693 286.349 50.976C287.458 50.2133 289.295 49.832 291.861 49.832C294.426 49.832 296.229 50.2133 297.269 50.976C298.378 51.7387 299.037 52.744 299.245 53.992C299.522 55.1707 299.661 56.4187 299.661 57.736V94.344C299.661 95.6613 299.522 96.9093 299.245 98.088C299.037 99.1973 298.378 100.099 297.269 100.792C296.159 101.485 294.357 101.832 291.861 101.832C289.989 101.832 288.533 101.624 287.493 101.208C286.453 100.792 285.69 100.272 285.205 99.648C284.719 99.024 284.407 98.3653 284.269 97.672C284.199 96.9787 284.165 96.3547 284.165 95.8L285.517 94.656C285.309 94.9333 284.858 95.4533 284.165 96.216C283.471 96.9787 282.535 97.8107 281.357 98.712C280.247 99.544 278.93 100.272 277.405 100.896C275.879 101.52 274.111 101.832 272.101 101.832ZM327.904 101.936C325.061 101.936 322.531 101.763 320.312 101.416C318.163 101.139 316.291 100.584 314.696 99.752C313.171 98.92 311.923 97.776 310.952 96.32C309.981 94.864 309.253 92.992 308.768 90.704C308.352 88.3467 308.144 85.4693 308.144 82.072V34.024C308.144 32.6373 308.248 31.3547 308.456 30.176C308.733 28.9973 309.427 28.0267 310.536 27.264C311.645 26.5013 313.448 26.12 315.944 26.12C318.44 26.12 320.208 26.5013 321.248 27.264C322.357 28.0267 323.051 28.9973 323.328 30.176C323.605 31.3547 323.744 32.6373 323.744 34.024V81.344C323.744 82.4533 323.779 83.3893 323.848 84.152C323.987 84.8453 324.195 85.4 324.472 85.816C324.819 86.232 325.269 86.5093 325.824 86.648C326.379 86.7867 327.107 86.856 328.008 86.856C328.84 86.856 329.672 86.96 330.504 87.168C331.405 87.376 332.168 88 332.792 89.04C333.416 90.08 333.728 91.8133 333.728 94.24C333.728 96.736 333.416 98.5387 332.792 99.648C332.168 100.757 331.405 101.416 330.504 101.624C329.672 101.832 328.805 101.936 327.904 101.936Z" fill="white"/>
<path d="M355.68 57.0267C355.68 52.4317 351.955 48.7067 347.36 48.7067C342.765 48.7067 339.04 52.4317 339.04 57.0267V94.4667C339.04 99.0617 342.765 102.787 347.36 102.787C351.955 102.787 355.68 99.0617 355.68 94.4667V57.0267Z" fill="#3A7D9A"/>
<mask id="mask0_361_15" style="mask-type:luminance" maskUnits="userSpaceOnUse" x="339" y="48" width="17" height="55">
<path d="M355.68 57.0267C355.68 52.4317 351.955 48.7067 347.36 48.7067C342.765 48.7067 339.04 52.4317 339.04 57.0267V94.4667C339.04 99.0617 342.765 102.787 347.36 102.787C351.955 102.787 355.68 99.0617 355.68 94.4667V57.0267Z" fill="white"/>
</mask>
<g mask="url(#mask0_361_15)">
<path d="M355.68 59.8H339.04V69.5067H355.68V59.8Z" fill="white" fill-opacity="0.45"/>
</g>
<mask id="mask1_361_15" style="mask-type:luminance" maskUnits="userSpaceOnUse" x="339" y="48" width="17" height="55">
<path d="M355.68 57.0267C355.68 52.4317 351.955 48.7067 347.36 48.7067C342.765 48.7067 339.04 52.4317 339.04 57.0267V94.4667C339.04 99.0617 342.765 102.787 347.36 102.787C351.955 102.787 355.68 99.0617 355.68 94.4667V57.0267Z" fill="white"/>
</mask>
<g mask="url(#mask1_361_15)">
<path d="M355.68 79.2133H339.04V88.92H355.68V79.2133Z" fill="white" fill-opacity="0.45"/>
</g>
<path d="M347.36 43.16C350.806 43.16 353.6 39.435 353.6 34.84C353.6 30.245 350.806 26.52 347.36 26.52C343.914 26.52 341.12 30.245 341.12 34.84C341.12 39.435 343.914 43.16 347.36 43.16Z" fill="#F2D888"/>
</svg>
