<svg width="1255" height="242" viewBox="0 0 1255 242" fill="none" xmlns="http://www.w3.org/2000/svg">
<path d="M60.6 195C54.0667 195 48.2667 193.733 43.2 191.2C38.2667 188.533 34.1333 185 30.8 180.6C27.6 176.067 25.1333 170.867 23.4 165C21.8 159.133 21.0667 152.8 21.2 146C21.2 139.467 22.0667 133.267 23.8 127.4C25.5333 121.4 28 116.133 31.2 111.6C34.5333 106.933 38.6 103.333 43.4 100.8C48.3333 98.1333 54.0667 96.8 60.6 96.8C66.4667 96.8 72.1333 98.1333 77.6 100.8C83.2 103.467 88.1333 107.133 92.4 111.8C96.6667 116.333 100 121.6 102.4 127.6C104.933 133.6 106.2 139.933 106.2 146.6C106.2 153.267 104.933 159.6 102.4 165.6C100 171.467 96.6667 176.6 92.4 181C88.1333 185.4 83.2667 188.867 77.8 191.4C72.3333 193.8 66.6 195 60.6 195ZM22 238.2C17.2 238.2 13.7333 237.467 11.6 236C9.6 234.667 8.33333 232.867 7.8 230.6C7.4 228.467 7.2 226.133 7.2 223.6V111.8C7.2 109.133 7.4 106.733 7.8 104.6C8.2 102.333 9.4 100.467 11.4 99C13.5333 97.5333 17 96.8 21.8 96.8C25.9333 96.8 29.2 97.4 31.6 98.6C34.1333 99.8 35.9333 101.667 37 104.2V223.4C37.1333 225.933 36.9333 228.333 36.4 230.6C35.8667 232.867 34.5333 234.667 32.4 236C30.4 237.467 26.9333 238.2 22 238.2ZM56.4 166.8C60.1333 166.8 63.4667 165.933 66.4 164.2C69.3333 162.333 71.6667 159.867 73.4 156.8C75.2667 153.733 76.2 150.333 76.2 146.6C76.2 142.733 75.3333 139.333 73.6 136.4C71.8667 133.333 69.5333 130.933 66.6 129.2C63.6667 127.467 60.3333 126.6 56.6 126.6C53 126.6 49.6667 127.533 46.6 129.4C43.6667 131.133 41.3333 133.533 39.6 136.6C38 139.533 37.2 142.867 37.2 146.6C37.2 150.333 38.0667 153.733 39.8 156.8C41.5333 159.867 43.8667 162.333 46.8 164.2C49.7333 165.933 52.9333 166.8 56.4 166.8ZM156.952 196.8C151.485 196.8 146.618 196.467 142.352 195.8C138.218 195.267 134.618 194.2 131.552 192.6C128.618 191 126.218 188.8 124.352 186C122.485 183.2 121.085 179.6 120.152 175.2C119.352 170.667 118.952 165.133 118.952 158.6V66.2C118.952 63.5333 119.152 61.0667 119.552 58.8C120.085 56.5333 121.418 54.6667 123.552 53.2C125.685 51.7333 129.152 51 133.952 51C138.752 51 142.152 51.7333 144.152 53.2C146.285 54.6667 147.618 56.5333 148.152 58.8C148.685 61.0667 148.952 63.5333 148.952 66.2V157.2C148.952 159.333 149.018 161.133 149.152 162.6C149.418 163.933 149.818 165 150.352 165.8C151.018 166.6 151.885 167.133 152.952 167.4C154.018 167.667 155.418 167.8 157.152 167.8C158.752 167.8 160.352 168 161.952 168.4C163.685 168.8 165.152 170 166.352 172C167.552 174 168.152 177.333 168.152 182C168.152 186.8 167.552 190.267 166.352 192.4C165.152 194.533 163.685 195.8 161.952 196.2C160.352 196.6 158.685 196.8 156.952 196.8ZM260.308 196.6C255.374 196.6 251.708 195.733 249.308 194C247.041 192.267 245.908 190.133 245.908 187.6L247.908 184.2C247.108 185.533 245.574 187.2 243.308 189.2C241.041 191.067 238.108 192.8 234.508 194.4C230.908 195.867 226.441 196.6 221.108 196.6C214.974 196.6 209.108 195.267 203.508 192.6C198.041 189.933 193.174 186.267 188.908 181.6C184.641 176.8 181.241 171.4 178.708 165.4C176.308 159.4 175.108 153.067 175.108 146.4C175.108 139.867 176.308 133.667 178.708 127.8C181.241 121.8 184.641 116.533 188.908 112C193.308 107.333 198.241 103.667 203.708 101C209.174 98.3333 214.974 97 221.108 97C226.041 97 230.241 97.7333 233.708 99.2C237.174 100.533 240.041 102.133 242.308 104C244.708 105.867 246.508 107.667 247.708 109.4L246.108 106.6C245.974 103.4 247.041 101 249.308 99.4C251.708 97.6667 255.441 96.8 260.508 96.8C265.308 96.8 268.708 97.5333 270.708 99C272.841 100.467 274.108 102.4 274.508 104.8C275.041 107.2 275.308 109.733 275.308 112.4V181.4C275.308 183.933 275.041 186.4 274.508 188.8C274.108 191.2 272.841 193.133 270.708 194.6C268.708 195.933 265.241 196.6 260.308 196.6ZM225.508 166.8C228.974 166.8 232.108 165.933 234.908 164.2C237.841 162.333 240.108 159.867 241.708 156.8C243.441 153.733 244.308 150.333 244.308 146.6C244.308 142.733 243.441 139.333 241.708 136.4C239.974 133.333 237.641 130.933 234.708 129.2C231.774 127.333 228.574 126.4 225.108 126.4C221.241 126.4 217.774 127.333 214.708 129.2C211.774 131.067 209.374 133.533 207.508 136.6C205.774 139.667 204.908 143.133 204.908 147C204.908 150.6 205.774 153.933 207.508 157C209.374 159.933 211.841 162.333 214.908 164.2C218.108 165.933 221.641 166.8 225.508 166.8ZM315.897 237.2C310.43 234.8 307.23 232.133 306.297 229.2C305.497 226.267 306.23 222.333 308.497 217.4L358.697 105.2C360.964 100 363.43 96.9333 366.097 96C368.897 94.9333 373.03 95.4667 378.497 97.6C383.83 100.133 386.897 102.8 387.697 105.6C388.63 108.4 388.03 112.133 385.897 116.8L335.497 229.8C333.23 235 330.764 238.133 328.097 239.2C325.43 240.267 321.364 239.6 315.897 237.2ZM333.297 190.6L286.297 119C283.364 114.6 282.164 110.933 282.697 108C283.364 105.067 286.03 102.067 290.697 99C295.897 95.8 299.897 94.6 302.697 95.4C305.63 96.0667 308.564 98.6667 311.497 103.2L346.097 156.2L333.297 190.6ZM472.691 197C468.024 197 464.624 196.267 462.491 194.8C460.357 193.333 459.024 191.467 458.491 189.2C458.091 186.8 457.891 184.267 457.891 181.6V88C457.891 83.4667 458.624 79 460.091 74.6C461.557 70.2 463.891 66.2667 467.091 62.8C470.291 59.2 474.357 56.3333 479.291 54.2C484.224 52.0667 490.224 51 497.291 51C499.824 51 502.224 51.2667 504.491 51.8C506.891 52.2 508.757 53.4667 510.091 55.6C511.557 57.6 512.291 61.0667 512.291 66C512.291 70.9333 511.557 74.4667 510.091 76.6C508.624 78.6 506.691 79.8667 504.291 80.4C502.024 80.8 499.624 81 497.091 81C495.357 81 493.891 81.1333 492.691 81.4C491.624 81.5333 490.757 81.8 490.091 82.2C489.424 82.6 488.891 83.2667 488.491 84.2C488.224 85.1333 488.091 86.2667 488.091 87.6V182.2C488.091 184.733 487.824 187.133 487.291 189.4C486.757 191.667 485.424 193.533 483.291 195C481.157 196.333 477.624 197 472.691 197ZM451.691 98.4H473.691L501.291 97.6C503.824 97.6 506.224 97.8667 508.491 98.4C510.757 98.8 512.624 100.067 514.091 102.2C515.557 104.333 516.291 107.867 516.291 112.8C516.291 117.333 515.557 120.667 514.091 122.8C512.757 124.933 510.957 126.333 508.691 127C506.424 127.533 503.957 127.8 501.291 127.8L475.091 127.2H450.891C447.024 127.067 444.291 125.933 442.691 123.8C441.224 121.533 440.491 117.8 440.491 112.6C440.491 107.8 441.424 104.267 443.291 102C445.157 99.6 447.957 98.4 451.691 98.4ZM603.863 196.6C598.929 196.6 595.263 195.733 592.863 194C590.596 192.267 589.463 190.133 589.463 187.6L591.463 184.2C590.663 185.533 589.129 187.2 586.863 189.2C584.596 191.067 581.663 192.8 578.063 194.4C574.463 195.867 569.996 196.6 564.663 196.6C558.529 196.6 552.663 195.267 547.063 192.6C541.596 189.933 536.729 186.267 532.463 181.6C528.196 176.8 524.796 171.4 522.263 165.4C519.863 159.4 518.663 153.067 518.663 146.4C518.663 139.867 519.863 133.667 522.263 127.8C524.796 121.8 528.196 116.533 532.463 112C536.863 107.333 541.796 103.667 547.263 101C552.729 98.3333 558.529 97 564.663 97C569.596 97 573.796 97.7333 577.263 99.2C580.729 100.533 583.596 102.133 585.863 104C588.263 105.867 590.063 107.667 591.263 109.4L589.663 106.6C589.529 103.4 590.596 101 592.863 99.4C595.263 97.6667 598.996 96.8 604.063 96.8C608.863 96.8 612.263 97.5333 614.263 99C616.396 100.467 617.663 102.4 618.063 104.8C618.596 107.2 618.863 109.733 618.863 112.4V181.4C618.863 183.933 618.596 186.4 618.063 188.8C617.663 191.2 616.396 193.133 614.263 194.6C612.263 195.933 608.796 196.6 603.863 196.6ZM569.063 166.8C572.529 166.8 575.663 165.933 578.463 164.2C581.396 162.333 583.663 159.867 585.263 156.8C586.996 153.733 587.863 150.333 587.863 146.6C587.863 142.733 586.996 139.333 585.263 136.4C583.529 133.333 581.196 130.933 578.263 129.2C575.329 127.333 572.129 126.4 568.663 126.4C564.796 126.4 561.329 127.333 558.263 129.2C555.329 131.067 552.929 133.533 551.063 136.6C549.329 139.667 548.463 143.133 548.463 147C548.463 150.6 549.329 153.933 551.063 157C552.929 159.933 555.396 162.333 558.463 164.2C561.663 165.933 565.196 166.8 569.063 166.8ZM680.028 197.6C676.828 197.6 674.095 197 671.828 195.8C669.561 194.6 667.761 192.733 666.428 190.2L630.428 118.4C628.028 113.6 627.295 109.667 628.228 106.6C629.295 103.4 632.361 100.533 637.428 98C642.495 95.6 646.495 94.8 649.428 95.6C652.495 96.2667 655.228 99.3333 657.628 104.8L680.028 157L702.428 105.6C704.961 99.8667 707.695 96.5333 710.628 95.6C713.561 94.6667 717.695 95.5333 723.028 98.2C728.495 100.733 731.495 103.733 732.028 107.2C732.695 110.533 731.895 114.4 729.628 118.8L693.828 190.2C692.628 192.733 690.895 194.6 688.628 195.8C686.361 197 683.495 197.6 680.028 197.6ZM786.473 198.4C780.207 198.4 773.94 197.2 767.673 194.8C761.54 192.267 755.94 188.733 750.873 184.2C745.807 179.667 741.807 174.267 738.873 168C735.94 161.6 734.473 154.533 734.473 146.8C734.473 139.6 735.807 132.933 738.473 126.8C741.14 120.533 744.873 115 749.673 110.2C754.473 105.4 759.94 101.667 766.073 99C772.34 96.2 779.007 94.8 786.073 94.8C795.673 94.8 804.34 97.1333 812.073 101.8C819.94 106.333 826.207 112.533 830.873 120.4C835.54 128.267 837.873 137 837.873 146.6C837.873 154.733 836.34 162 833.273 168.4C830.34 174.667 826.34 180.067 821.273 184.6C816.34 189.133 810.807 192.6 804.673 195C798.673 197.267 792.607 198.4 786.473 198.4ZM786.073 168.2C789.273 168.2 792.54 167.4 795.873 165.8C799.207 164.2 802.007 161.8 804.273 158.6C806.54 155.4 807.673 151.333 807.673 146.4C807.673 142.133 806.74 138.4 804.873 135.2C803.007 132 800.407 129.533 797.073 127.8C793.873 125.933 790.14 125 785.873 125C781.873 125 778.273 125.933 775.073 127.8C772.007 129.667 769.473 132.267 767.473 135.6C765.607 138.8 764.673 142.467 764.673 146.6C764.673 151.4 765.74 155.467 767.873 158.8C770.14 162 772.94 164.4 776.273 166C779.607 167.467 782.873 168.2 786.073 168.2ZM865.192 196.8C860.259 196.8 856.726 196.133 854.592 194.8C852.592 193.333 851.326 191.4 850.792 189C850.392 186.6 850.192 184.133 850.192 181.6V111.8C850.192 109.133 850.459 106.667 850.992 104.4C851.526 102.133 852.792 100.333 854.792 99C856.926 97.5333 860.459 96.8 865.392 96.8C870.059 96.8 873.392 97.4667 875.392 98.8C877.526 100 878.859 101.467 879.392 103.2C879.926 104.8 880.192 106.2 880.192 107.4L877.792 108.6C878.059 108.067 878.726 107.133 879.792 105.8C880.992 104.333 882.592 102.867 884.592 101.4C886.592 99.8 888.992 98.4667 891.792 97.4C894.726 96.3333 898.059 95.8 901.792 95.8C903.259 95.8 904.859 95.9333 906.592 96.2C908.459 96.3333 910.326 96.7333 912.192 97.4C914.192 97.9333 915.992 98.7333 917.592 99.8C919.192 100.733 920.459 101.933 921.392 103.4C922.459 104.867 922.992 106.667 922.992 108.8C922.992 114.267 921.726 118.933 919.192 122.8C916.659 126.533 913.459 128.4 909.592 128.4C907.326 128.4 905.726 128.2 904.792 127.8C903.859 127.4 903.059 127 902.392 126.6C901.859 126.2 901.192 125.867 900.392 125.6C899.592 125.2 898.126 125 895.992 125C893.992 125 892.059 125.267 890.192 125.8C888.459 126.333 886.792 127.2 885.192 128.4C883.726 129.467 882.526 130.867 881.592 132.6C880.792 134.2 880.392 136 880.392 138V182C880.392 184.533 880.126 187 879.592 189.4C879.192 191.667 877.926 193.467 875.792 194.8C873.659 196.133 870.126 196.8 865.192 196.8ZM1033.04 196.8C1026.24 196.8 1020.37 196.067 1015.44 194.6C1010.64 193.133 1006.64 190.867 1003.44 187.8C1000.24 184.733 997.838 180.867 996.238 176.2C994.771 171.4 994.038 165.733 994.038 159.2V78C994.038 75.3333 994.238 72.9333 994.638 70.8C995.171 68.6667 996.504 66.9333 998.638 65.6C1000.77 64.1333 1004.24 63.4 1009.04 63.4C1013.84 63.4 1017.3 64.1333 1019.44 65.6C1021.57 67.0667 1022.84 68.9333 1023.24 71.2C1023.77 73.4667 1024.04 75.9333 1024.04 78.6V158C1024.04 160.133 1024.17 161.933 1024.44 163.4C1024.84 164.733 1025.37 165.733 1026.04 166.4C1026.7 167.067 1027.64 167.533 1028.84 167.8C1030.04 168.067 1031.5 168.2 1033.24 168.2C1036.17 168.2 1038.77 168.467 1041.04 169C1043.3 169.533 1045.04 170.733 1046.24 172.6C1047.57 174.467 1048.24 177.6 1048.24 182C1048.24 186.8 1047.5 190.267 1046.04 192.4C1044.57 194.533 1042.64 195.8 1040.24 196.2C1037.97 196.6 1035.57 196.8 1033.04 196.8ZM987.838 98.4H1009.84L1037.44 97.6C1039.97 97.6 1042.37 97.8667 1044.64 98.4C1046.9 98.8 1048.77 100.067 1050.24 102.2C1051.7 104.333 1052.44 107.867 1052.44 112.8C1052.44 117.333 1051.7 120.667 1050.24 122.8C1048.9 124.933 1047.1 126.333 1044.84 127C1042.57 127.533 1040.1 127.8 1037.44 127.8L1011.24 127.2H987.038C983.171 127.067 980.438 125.933 978.838 123.8C977.371 121.533 976.638 117.8 976.638 112.6C976.638 107.8 977.571 104.267 979.438 102C981.304 99.6 984.104 98.4 987.838 98.4ZM1113.46 198.6C1104.13 198.6 1096.06 197.067 1089.26 194C1082.6 190.933 1077.13 186.933 1072.86 182C1068.6 176.933 1065.4 171.333 1063.26 165.2C1061.26 159.067 1060.26 152.933 1060.26 146.8C1060.26 136.8 1062.53 127.933 1067.06 120.2C1071.6 112.467 1077.86 106.4 1085.86 102C1093.86 97.4667 1103.06 95.2 1113.46 95.2C1121.2 95.2 1127.86 96.4667 1133.46 99C1139.2 101.4 1143.86 104.6 1147.46 108.6C1151.2 112.467 1153.93 116.667 1155.66 121.2C1157.53 125.733 1158.46 130.067 1158.46 134.2C1158.46 141.533 1156.66 147 1153.06 150.6C1149.6 154.067 1145.13 155.8 1139.66 155.8H1092.06C1092.33 159.267 1093.53 162.2 1095.66 164.6C1097.93 167 1100.73 168.867 1104.06 170.2C1107.4 171.533 1110.93 172.2 1114.66 172.2C1117.86 172.2 1120.66 172.067 1123.06 171.8C1125.46 171.4 1127.53 170.933 1129.26 170.4C1131 169.733 1132.6 169.133 1134.06 168.6C1135.53 167.933 1136.8 167.4 1137.86 167C1139.06 166.6 1140.2 166.333 1141.26 166.2C1143.26 166.067 1145.06 166.667 1146.66 168C1148.4 169.2 1149.93 171.067 1151.26 173.6C1152.2 175.067 1152.8 176.467 1153.06 177.8C1153.46 179.133 1153.66 180.467 1153.66 181.8C1153.66 185 1152 187.867 1148.66 190.4C1145.46 192.933 1140.86 194.933 1134.86 196.4C1129 197.867 1121.86 198.6 1113.46 198.6ZM1092.06 139.4H1123.66C1125.8 139.4 1127.33 139.067 1128.26 138.4C1129.33 137.6 1129.86 136.133 1129.86 134C1129.86 131.6 1129.13 129.533 1127.66 127.8C1126.2 125.933 1124.2 124.533 1121.66 123.6C1119.26 122.533 1116.46 122 1113.26 122C1109.13 122 1105.46 122.8 1102.26 124.4C1099.06 126 1096.53 128.133 1094.66 130.8C1092.93 133.467 1092.06 136.333 1092.06 139.4ZM1207.29 198.4C1203.69 198.4 1199.75 198 1195.49 197.2C1191.35 196.4 1187.29 195.267 1183.29 193.8C1179.29 192.2 1175.95 190.4 1173.29 188.4C1170.62 186.267 1169.09 183.867 1168.69 181.2C1168.42 179.867 1168.42 178.467 1168.69 177C1169.09 175.4 1169.75 173.8 1170.69 172.2C1171.62 170.467 1172.75 168.667 1174.09 166.8C1175.15 165.333 1176.35 164.4 1177.69 164C1179.02 163.6 1180.55 163.667 1182.29 164.2C1184.42 164.6 1186.55 165.333 1188.69 166.4C1190.95 167.333 1193.15 168.4 1195.29 169.6C1197.55 170.667 1199.89 171.667 1202.29 172.6C1204.69 173.4 1207.15 173.8 1209.69 173.8C1213.42 173.8 1216.29 173.267 1218.29 172.2C1220.42 171 1221.49 169.4 1221.49 167.4C1221.49 165.933 1221.02 164.733 1220.09 163.8C1219.29 162.867 1218.09 162.067 1216.49 161.4C1215.02 160.6 1213.29 159.933 1211.29 159.4C1209.29 158.867 1207.09 158.333 1204.69 157.8C1202.42 157.133 1200.09 156.467 1197.69 155.8C1194.35 154.867 1191.15 153.667 1188.09 152.2C1185.02 150.733 1182.22 148.867 1179.69 146.6C1177.15 144.2 1175.15 141.333 1173.69 138C1172.22 134.533 1171.49 130.333 1171.49 125.4C1171.49 118.867 1173.02 113.4 1176.09 109C1179.15 104.6 1183.62 101.267 1189.49 99C1195.35 96.6 1202.49 95.4 1210.89 95.4C1213.29 95.4 1215.69 95.5333 1218.09 95.8C1220.49 96.0667 1222.82 96.5333 1225.09 97.2C1227.49 97.8667 1229.82 98.6667 1232.09 99.6C1234.35 100.533 1236.62 101.667 1238.89 103C1242.89 104.867 1244.95 107.4 1245.09 110.6C1245.22 113.8 1244.09 117.067 1241.69 120.4C1240.22 122.667 1238.69 124.333 1237.09 125.4C1235.49 126.333 1233.82 126.6 1232.09 126.2C1229.95 125.667 1227.62 124.8 1225.09 123.6C1222.69 122.4 1220.09 121.267 1217.29 120.2C1214.62 119.133 1211.95 118.6 1209.29 118.6C1207.02 118.6 1205.09 118.933 1203.49 119.6C1201.89 120.133 1200.69 120.933 1199.89 122C1199.09 122.933 1198.69 124.067 1198.69 125.4C1198.69 127.133 1199.15 128.533 1200.09 129.6C1201.15 130.533 1202.55 131.333 1204.29 132C1206.02 132.667 1208.02 133.267 1210.29 133.8C1212.55 134.333 1215.02 134.867 1217.69 135.4C1221.29 136.067 1224.95 137 1228.69 138.2C1232.55 139.267 1236.02 140.867 1239.09 143C1242.29 145.133 1244.82 148 1246.69 151.6C1248.69 155.2 1249.69 159.933 1249.69 165.8C1249.69 176.333 1246.02 184.4 1238.69 190C1231.35 195.6 1220.89 198.4 1207.29 198.4Z" fill="#084B6D"/>
<path d="M966 106.667C966 97.8302 958.837 90.6667 950 90.6667C941.163 90.6667 934 97.8302 934 106.667V178.667C934 187.503 941.163 194.667 950 194.667C958.837 194.667 966 187.503 966 178.667V106.667Z" fill="#3A7D9A"/>
<mask id="mask0_391_37" style="mask-type:luminance" maskUnits="userSpaceOnUse" x="934" y="90" width="32" height="105">
<path d="M966 106.667C966 97.8302 958.837 90.6667 950 90.6667C941.163 90.6667 934 97.8302 934 106.667V178.667C934 187.503 941.163 194.667 950 194.667C958.837 194.667 966 187.503 966 178.667V106.667Z" fill="white"/>
</mask>
<g mask="url(#mask0_391_37)">
<path d="M966 112H934V130.667H966V112Z" fill="white" fill-opacity="0.45"/>
</g>
<mask id="mask1_391_37" style="mask-type:luminance" maskUnits="userSpaceOnUse" x="934" y="90" width="32" height="105">
<path d="M966 106.667C966 97.8302 958.837 90.6667 950 90.6667C941.163 90.6667 934 97.8302 934 106.667V178.667C934 187.503 941.163 194.667 950 194.667C958.837 194.667 966 187.503 966 178.667V106.667Z" fill="white"/>
</mask>
<g mask="url(#mask1_391_37)">
<path d="M966 149.333H934V168H966V149.333Z" fill="white" fill-opacity="0.45"/>
</g>
<path d="M950 80C956.627 80 962 72.8366 962 64C962 55.1634 956.627 48 950 48C943.373 48 938 55.1634 938 64C938 72.8366 943.373 80 950 80Z" fill="#F2D888"/>
</svg>
